<svg aria-hidden="true" style="position: absolute; width: 0; height: 0; overflow: hidden;" version="1.1" xmlns="http://www.w3.org/2000/svg" xmlns:xlink="http://www.w3.org/1999/xlink">
<defs>
<symbol id="icon-frog-flat" viewBox="0 0 32 32">
<path d="M15.208 4.713c-0.196 0.088-0.333 0.192-0.5 0.375l-0.229 0.254-1.371 0.275-0.313-0.287c-0.242-0.221-0.346-0.287-0.442-0.287-0.067 0-0.217-0.013-0.333-0.025l-0.208-0.025-0.096 0.183c-0.050 0.096-0.092 0.192-0.092 0.204s0.108 0.058 0.242 0.096c0.208 0.063 0.254 0.1 0.375 0.279l0.138 0.208-0.304 0.138c-0.167 0.075-1.346 0.6-2.617 1.171-1.271 0.567-2.333 1.054-2.358 1.079-0.062 0.058-0.242 0.883-0.208 0.937 0.025 0.037 0.65 0.529 0.754 0.596 0.025 0.017 0.888 0.188 1.917 0.387 1.742 0.333 1.958 0.367 3.033 0.454 0.633 0.054 1.162 0.104 1.175 0.117 0.008 0.008-0.892 0.663-2.008 1.454-1.113 0.787-2.046 1.454-2.071 1.479s-0.092 0.333-0.146 0.688c-0.054 0.354-0.108 0.662-0.125 0.688-0.017 0.029-0.217-0.104-0.525-0.35-0.429-0.342-0.588-0.442-1.117-0.688l-0.621-0.283-0.358 0.308-0.362 0.308-0.529 1.913c-0.429 1.554-0.596 2.087-0.896 2.85l-0.362 0.942-1.258 0.85-1.204-0.158-0.329 0.321-0.325 0.325 0.3 0.075c0.429 0.104 1.617 0.533 1.617 0.583 0 0.021-0.267 0.337-0.592 0.7-0.579 0.654-0.587 0.667-0.658 0.958-0.038 0.167-0.058 0.313-0.042 0.329 0.017 0.012 0.163 0.075 0.321 0.137l0.292 0.108 0.183-0.2c0.1-0.108 0.446-0.492 0.767-0.846l0.579-0.646 0.638-0.083 0.638-0.087 0.454 0.196 0.45 0.192-0.017 0.379-0.013 0.379 0.279 0.125c0.158 0.071 0.287 0.125 0.292 0.121 0.004-0.008 0.075-0.108 0.158-0.225 0.083-0.121 0.154-0.237 0.154-0.262 0-0.029-0.088-0.258-0.192-0.517l-0.196-0.467 0.075-0.575c0.042-0.317 0.096-0.587 0.117-0.6s0.196-0.067 0.388-0.121l0.35-0.096 0.179 0.308 0.175 0.304 0.208-0.021c0.113-0.013 0.213-0.029 0.221-0.033 0.025-0.021-0.154-0.783-0.192-0.808-0.021-0.013-0.229-0.175-0.458-0.354l-0.421-0.333 0.063-0.117c0.042-0.083 0.088-0.113 0.133-0.1 0.038 0.012 0.204 0.058 0.371 0.104l0.296 0.079 0.225-0.233-0.188-0.267-0.192-0.267-0.75 0.033-0.296-0.242c-0.2-0.167-0.292-0.267-0.279-0.317 0.013-0.037 0.1-0.542 0.2-1.117 0.138-0.817 0.188-1.033 0.225-0.983 0.025 0.033 0.292 0.5 0.587 1.033 0.483 0.875 0.608 1.063 1.271 1.908l0.729 0.938 0.738 0.329 0.742 0.329 0.246-0.075 0.25-0.075 0.575-1.058 0.050-0.496c0.042-0.429 0.037-0.65-0.033-1.6-0.042-0.608-0.075-1.113-0.063-1.121 0.038-0.050 0.492 0.229 1.504 0.921 0.6 0.413 1.154 0.771 1.229 0.804 0.075 0.029 0.679 0.25 1.342 0.488l1.208 0.429 2.042 0.042-0.217 0.137c-0.204 0.133-0.221 0.154-0.342 0.512l-0.125 0.375 0.188 0.529c0.175 0.496 0.225 0.587 0.846 1.508 0.5 0.742 0.667 1.021 0.688 1.154 0.012 0.096 0.062 0.237 0.104 0.313 0.054 0.096 0.087 0.262 0.108 0.558 0.025 0.417 0.025 0.417-0.2 1.208-0.15 0.525-0.271 0.854-0.354 0.992l-0.133 0.204 0.092 0.15c0.133 0.229 0.158 0.246 0.437 0.262 0.242 0.017 0.271 0.008 0.375-0.1 0.108-0.113 0.108-0.121 0.062-0.387l-0.050-0.267 0.233-0.575c0.237-0.587 0.296-0.679 0.567-0.892 0.142-0.113 0.171-0.121 0.371-0.096 0.208 0.029 0.246 0.054 0.854 0.608 0.746 0.679 0.863 0.842 0.842 1.192-0.008 0.196 0.008 0.267 0.083 0.375 0.092 0.129 0.108 0.133 0.375 0.133 0.242-0.004 0.296-0.017 0.413-0.117l0.133-0.117-0.163-0.267c-0.092-0.15-0.167-0.317-0.167-0.371 0-0.063-0.175-0.333-0.471-0.729-0.413-0.55-0.821-1.175-0.821-1.254 0-0.012 0.242 0.104 0.542 0.258l0.542 0.283 0.092 0.237c0.092 0.233 0.1 0.242 0.246 0.242 0.083 0 0.208-0.012 0.279-0.025 0.121-0.025 0.129-0.042 0.175-0.317 0.029-0.158 0.042-0.292 0.038-0.3-0.008-0.004-0.308-0.212-0.663-0.458-0.354-0.25-0.758-0.562-0.896-0.696-0.15-0.146-0.333-0.275-0.458-0.325-0.113-0.042-0.279-0.108-0.363-0.146l-0.154-0.067 0.179-0.383c0.175-0.375 0.179-0.387 0.117-0.529-0.033-0.083-0.075-0.196-0.096-0.25-0.037-0.096-0.042-0.096-0.267 0.117-0.121 0.117-0.238 0.212-0.258 0.212-0.042-0.004-0.942-1.708-0.917-1.737 0.012-0.008 0.429-0.046 0.929-0.079 0.825-0.054 3-0.229 3.683-0.296 0.233-0.021 0.433-0.1 1.467-0.592l1.196-0.567 0.529-0.704 0.525-0.7-0.392-1.567-0.496-0.671-0.496-0.667v-0.721l-0.254-0.325c-0.237-0.308-0.271-0.333-0.521-0.417-0.246-0.083-0.321-0.088-0.892-0.063-0.621 0.033-0.621 0.033-0.596-0.058 0.012-0.058-0.017-0.15-0.087-0.254-0.133-0.2-0.133-0.242-0.012-0.379 0.075-0.083 0.175-0.121 0.471-0.179 0.517-0.1 0.512-0.096 0.537-0.246 0.025-0.125 0.054-0.142 0.387-0.271l0.363-0.137 0.237 0.083 0.233 0.079 0.167-0.4-0.175-0.171c-0.258-0.254-0.417-0.242-0.904 0.058l-0.371 0.229h-1.317l-0.246-0.3c-0.137-0.162-0.246-0.308-0.242-0.321s0.017-0.158 0.033-0.321l0.029-0.296-0.171-0.067c-0.096-0.042-0.263-0.071-0.375-0.071-0.179 0-0.217 0.017-0.333 0.146-0.071 0.083-0.129 0.158-0.129 0.171 0 0.008 0.046 0.092 0.1 0.179 0.087 0.137 0.1 0.196 0.079 0.392l-0.025 0.233-0.262 0.025c-0.379 0.042-0.808 0.246-1.383 0.662l-0.5 0.363-1.475-0.433c-0.808-0.242-1.846-0.525-2.304-0.633l-0.833-0.196-0.988 0.142c-0.546 0.079-0.992 0.138-0.992 0.125 0-0.008 0.163-0.221 0.358-0.471l0.358-0.458-0.054-0.192c-0.050-0.188-0.342-0.663-0.512-0.829-0.063-0.063-0.508-0.217-1.525-0.512-0.787-0.233-1.442-0.433-1.454-0.442-0.008-0.012 0.017-0.067 0.054-0.125 0.063-0.092 0.096-0.104 0.333-0.104 0.175 0 0.337 0.029 0.483 0.092 0.179 0.075 0.229 0.117 0.292 0.263 0.071 0.163 0.079 0.171 0.237 0.154 0.142-0.012 0.179-0.037 0.238-0.158 0.092-0.2 0.087-0.229-0.083-0.396-0.079-0.075-0.204-0.233-0.279-0.346l-0.129-0.204 0.167-0.142c0.392-0.337 0.417-0.35 0.979-0.475 0.467-0.104 0.567-0.117 0.683-0.075 0.129 0.050 0.15 0.042 0.35-0.104l0.217-0.158-0.325-0.183c-0.179-0.104-0.342-0.204-0.363-0.225s-0.1-0.004-0.196 0.046c-0.158 0.079-0.463 0.104-0.65 0.054-0.092-0.025-0.096-0.050-0.096-0.383v-0.354l0.229-0.283c0.175-0.217 0.271-0.296 0.396-0.333 0.092-0.029 0.167-0.067 0.167-0.088 0-0.033-0.254-0.417-0.267-0.404-0.004 0-0.125 0.058-0.275 0.125zM25.983 13.175c0.058 0.108 0.054 0.117-0.025 0.117-0.050 0-0.154-0.050-0.233-0.108l-0.146-0.113 0.117-0.071c0.129-0.083 0.162-0.062 0.287 0.175z"></path>
</symbol>
</defs>
</svg>
